<svg id="Layer_1" data-name="Layer 1" xmlns="http://www.w3.org/2000/svg" viewBox="0 0 504 210.67">
    <title>新Logo合集_cropped</title>
    <path d="M98.91,6.51l76,43.89A12.23,12.23,0,0,1,181,61v87.77a12.23,12.23,0,0,1-6.11,10.59l-76,43.89a12.23,12.23,0,0,1-12.23,0l-76-43.89a12.23,12.23,0,0,1-6.11-10.59V61A12.23,12.23,0,0,1,10.67,50.4l76-43.89A12.23,12.23,0,0,1,98.91,6.51Z"
          style="fill:#0a88ff"/>
    <path d="M116.54,89.23a0.08,0.08,0,0,0-.08-0.08c-0.94-.94-1.89-1.81-2.91-2.68a11.38,11.38,0,0,1,.87,2.28,11.19,11.19,0,0,1,.47,3.31V92.3h0a12.65,12.65,0,0,1-8.26,11.81,19.12,19.12,0,0,0,1.81-5.67,23.48,23.48,0,0,0,.31-3.31A21.55,21.55,0,0,0,107.17,87a20.54,20.54,0,0,0-2.91-4.88,0.42,0.42,0,0,1-.16-0.24,20.39,20.39,0,0,1-4.57-13,21,21,0,0,1,1.42-7.4,14.87,14.87,0,0,1,.87-2c-0.79.31-1.65,0.71-2.44,1.1h0a32.8,32.8,0,0,0-7.24,5,34.36,34.36,0,0,0-7.08,9.05,32.17,32.17,0,0,0-2.44,5.9,32.55,32.55,0,0,0-1.1,5,27,27,0,0,0-.31,4.41c0,1.26.08,2.52,0.16,3.7A19,19,0,0,1,77.89,87a18.6,18.6,0,0,1-.79-4.17,17.12,17.12,0,0,1-.08-2,15.2,15.2,0,0,1,.31-3.31,19.23,19.23,0,0,1,2-6A33.26,33.26,0,0,0,66.95,91.2c-0.08.55-.24,1.1-0.31,1.65-0.16,1.18-.31,2.44-0.39,3.7v1.1a32.36,32.36,0,0,0,6,19.21h0a12.69,12.69,0,0,1-11.81-8.19,13.24,13.24,0,0,1-.55-1.89,90.66,90.66,0,0,0-.47,9.68,33.29,33.29,0,0,0,33.06,33.45,32.82,32.82,0,0,0,7.95-.94,16.9,16.9,0,0,1-3.46-.71,20.5,20.5,0,0,1-9-34v4.27a12.9,12.9,0,0,0,3.94,9.29,12.61,12.61,0,0,0,8.66,3.46A12.81,12.81,0,0,0,103,131a4.9,4.9,0,0,0,3.94-4.72,5.45,5.45,0,0,0-.24-1.57,11.15,11.15,0,0,1,3.38,2.28A12.76,12.76,0,0,1,114,136.3a12.21,12.21,0,0,1-2.75,7.79,33.07,33.07,0,0,0,14.4-22.83c0.16-1.1.24-2.2,0.31-3.38,0-.39.08-4.88,0.08-5.67A34.13,34.13,0,0,0,116.54,89.23Z"
          style="fill:#fff"/>
    <path d="M257.64,155.58a1.81,1.81,0,0,1-1.25-.49,2,2,0,0,1-.73-1.41,1.83,1.83,0,0,1,.5-1.31c10.57-11.27,16-29.45,16.25-54V60.63a1.82,1.82,0,0,1,1.82-1.82,1.89,1.89,0,0,1,2.08,1.82V91.89a64.21,64.21,0,0,0,10.13-12.24,1.82,1.82,0,0,1,3,0,1.92,1.92,0,0,1,.06,2.16,58.26,58.26,0,0,1-13.18,14.46l-0.06,2.09a166.76,166.76,0,0,1-1.23,18.46c4.87,6.18,9.77,13,15,20.9a1.83,1.83,0,0,1-.06,2.09,1.82,1.82,0,0,1-3-.13c-4.58-7.29-8.77-13.38-12.43-18.09l-1.09-.09,0.82,0.15c-2.63,14.05-7.79,25.28-15.36,33.37A1.81,1.81,0,0,1,257.64,155.58Zm50.41-.13a1.81,1.81,0,0,1-1.78-1.48,1.94,1.94,0,0,1,.34-1.71,1.81,1.81,0,0,1,1.4-.66c2.39,0.09,4.63.17,6.79,0.17,2.81,0,4.18-1.33,4.18-4.07V127.25l-18.76-.16a1.82,1.82,0,0,1-1.82-1.82V96.15c-3.27,2.08-6.48,4-9.78,5.71a1.82,1.82,0,0,1-2.41-.75,2,2,0,0,1-.27-1.6,1.81,1.81,0,0,1,.89-1.09,71.76,71.76,0,0,0,13.77-9.52,57.23,57.23,0,0,0-7.76-7.45,1.82,1.82,0,0,1-.67-1.32,1.8,1.8,0,0,1,.53-1.37,1.92,1.92,0,0,1,1.39-.63,1.82,1.82,0,0,1,1.12.39,71.18,71.18,0,0,1,8.19,7.41A51.89,51.89,0,0,0,313,73.19l-20.87-.24a1.82,1.82,0,0,1-1.82-1.82V70.76a1.82,1.82,0,0,1,1.82-1.82H314.9a65,65,0,0,0,3.68-10.52,1.83,1.83,0,0,1,1.75-1.34l0.43,0a1.82,1.82,0,0,1,1.59,2.27,84.19,84.19,0,0,1-3,9.34L347,68.94a1.82,1.82,0,0,1,1.82,1.82v0.37A1.82,1.82,0,0,1,347,72.95H326.62a50.37,50.37,0,0,0,10.45,14.63,63.2,63.2,0,0,0,8.13-9.17,1.83,1.83,0,0,1,1.46-.74,1.79,1.79,0,0,1,1.1.37L348,78.23a1.83,1.83,0,0,1,.37,2.51,70.13,70.13,0,0,1-8.12,9.44,61.25,61.25,0,0,0,12,8.17,1.82,1.82,0,0,1,.82,2.34,1.88,1.88,0,0,1-1.71,1.18,1.81,1.81,0,0,1-.86-0.22,80.55,80.55,0,0,1-8.79-5.44l-0.24,29.06a1.82,1.82,0,0,1-1.82,1.82H323.14L323,148.22c0,4.73-2.57,7.22-7.44,7.22h-7.5ZM302.57,112a0.16,0.16,0,0,0-.16.16v10.82l34.69,0.16a0.43,0.43,0,0,0,.43-0.43V112.12Zm0-15.56a0.16,0.16,0,0,0-.16.16V107.8l35,0.16,0.16-11.4Zm15-23.45a0.16,0.16,0,0,0-.14.09A61.54,61.54,0,0,1,303,92.23l0.1,0.27h33.63l0.64-.9-0.55.63A56.58,56.58,0,0,1,322.19,73Zm-27.34,81.58a1.81,1.81,0,0,1-1.29-.53l-0.19-.2a1.81,1.81,0,0,1,.06-2.62A79.07,79.07,0,0,0,303.19,133a1.83,1.83,0,0,1,1.57-.9,1.79,1.79,0,0,1,.77.17,2,2,0,0,1,1.19,1.23,1.81,1.81,0,0,1-.18,1.46A87,87,0,0,1,291.45,154,1.8,1.8,0,0,1,290.21,154.53Zm58.6-.78a1.82,1.82,0,0,1-1.56-.89,128.38,128.38,0,0,0-12.89-17.57,1.82,1.82,0,0,1,.5-2.77,2,2,0,0,1,1-.31,1.81,1.81,0,0,1,1.4.66,156.71,156.71,0,0,1,13.34,18,1.81,1.81,0,0,1-.54,2.45l-0.26.18A1.81,1.81,0,0,1,348.81,153.75Zm-90.5-43.31a1.81,1.81,0,0,1-.52-0.08,2,2,0,0,1-1.33-1,1.79,1.79,0,0,1-.12-1.4,102.27,102.27,0,0,0,4.73-27.2,1.81,1.81,0,0,1,1.81-1.74l0.45,0A1.82,1.82,0,0,1,265,81,103.92,103.92,0,0,1,260,109.19,1.81,1.81,0,0,1,258.31,110.44Z"
          style="fill:#0a88ff"/>
    <path d="M257,154.48l-0.15-.14a1,1,0,0,1,0-1.4c10.84-11.55,16.26-29.75,16.47-54.6V60.63a1,1,0,0,1,1-1h0.27a1,1,0,0,1,1,1V92.28a0.63,0.63,0,0,0,1.05.47,62.12,62.12,0,0,0,10.61-12.63,1,1,0,0,1,1.65,0l0.06,0.08a1.06,1.06,0,0,1,0,1.16,57.15,57.15,0,0,1-13,14.26,1,1,0,0,0-.38.78v2a166.38,166.38,0,0,1-1.23,18.35,1,1,0,0,0,.2.72c4.91,6.16,9.82,13,14.92,20.73a1,1,0,0,1,0,1.14h0a1,1,0,0,1-1.63-.07c-4.72-7.5-8.89-13.55-12.47-18.16a1,1,0,0,0-1.74.42c-2.62,14-7.69,25-15.15,33A1,1,0,0,1,257,154.48Zm7.19-73.54a102.48,102.48,0,0,1-4.89,28,1,1,0,0,1-1.23.64l-0.25-.07a1,1,0,0,1-.65-1.24,102.49,102.49,0,0,0,4.77-27.42,1,1,0,0,1,1.07-.94l0.27,0A1,1,0,0,1,264.14,80.94Zm51.67-11.76a78.42,78.42,0,0,0,3.58-10.54,1,1,0,0,1,1-.72l0.26,0a1,1,0,0,1,.86,1.23,83.92,83.92,0,0,1-3,9.25,1,1,0,0,0,.92,1.35H347a1,1,0,0,1,1,1v0.37a1,1,0,0,1-1,1H326.62a1,1,0,0,0-.87,1.44,56.59,56.59,0,0,0,10.74,14.61,1,1,0,0,0,1.4,0,78.83,78.83,0,0,0,8-9.27,1,1,0,0,1,1.39-.2l0.25,0.19a1,1,0,0,1,.2,1.36,69.16,69.16,0,0,1-8,9.33,1,1,0,0,0,.05,1.47,72.67,72.67,0,0,0,12.18,8,1,1,0,0,1,.45,1.27l0,0.1a1,1,0,0,1-1.37.47,79.61,79.61,0,0,1-8.7-5.38,1,1,0,0,0-1.56.8v28.93a1,1,0,0,1-1,1H323.14a1,1,0,0,0-1,1v21c0,4.26-2.24,6.39-6.61,6.39h-7.5a1,1,0,0,1-1-.8l0-.22a1,1,0,0,1,1-1.17c2.33,0.09,4.58.17,6.75,0.17,3.3,0,5-1.71,5-4.9V127.25a1,1,0,0,0-1-1h-18.6a1,1,0,0,1-1-1V96.15a1,1,0,0,0-1.56-.8,68.08,68.08,0,0,1-9.42,5.77,1,1,0,0,1-1.31-.41l-0.12-.21a1,1,0,0,1,.4-1.35,73,73,0,0,0,13.93-9.63,1,1,0,0,0,.08-1.4,76,76,0,0,0-7.86-7.31,1,1,0,0,1-.08-1.46l0.08-.08a1,1,0,0,1,1.33-.1,70.29,70.29,0,0,1,8.09,7.32,1,1,0,0,0,1.43,0,58.59,58.59,0,0,0,9.49-12.93,1,1,0,0,0-.86-1.46H292.13a1,1,0,0,1-1-1V70.76a1,1,0,0,1,1-1H314.9A1,1,0,0,0,315.81,69.18Zm-10,65.38a86.83,86.83,0,0,1-14.95,18.88,1,1,0,0,1-1.37,0l-0.2-.2a1,1,0,0,1,0-1.42,79.42,79.42,0,0,0,14.56-18.35,1,1,0,0,1,1.27-.4l0.23,0.11A1,1,0,0,1,305.83,134.56Zm-2.74-41.23h33.63a1,1,0,0,0,.64-1.73A55.37,55.37,0,0,1,323,72.7a1,1,0,0,0-.89-0.58h-4.51a1,1,0,0,0-.88.56,60.47,60.47,0,0,1-14.24,18.94A1,1,0,0,0,303.08,93.33Zm34.29,2.24h-34.8a1,1,0,0,0-1,1V107.8a1,1,0,0,0,1,1h34.8a1,1,0,0,0,1-1V96.55A1,1,0,0,0,337.37,95.57Zm-34.8,28.35H337.1a1.26,1.26,0,0,0,1.26-1.26V112.11a1,1,0,0,0-1-1h-34.8a1,1,0,0,0-1,1v10.82A1,1,0,0,0,302.57,123.92Zm47,28.66-0.26.17a1,1,0,0,1-1.39-.32,128.32,128.32,0,0,0-13-17.68,1,1,0,0,1,.27-1.51l0.15-.08a1,1,0,0,1,1.24.23,156.71,156.71,0,0,1,13.27,17.86A1,1,0,0,1,349.62,152.58Z"
          style="fill:#0a88ff"/>
    <path d="M448.26,155.34a1.93,1.93,0,0,1,0-3.86c3.15,0.09,6.1.17,9,.17a3,3,0,0,0,3.15-3V119.31a0.43,0.43,0,0,0-.43-0.43H434.43a2.09,2.09,0,0,1-2.09-2.09V82.11A2.09,2.09,0,0,1,434.43,80h21.21a0.43,0.43,0,0,0,.4-0.28,59.82,59.82,0,0,0,2.93-12H418.34a0.43,0.43,0,0,0-.43.43v38.5c-0.31,19.21-3.42,35-9.26,47.06a1.9,1.9,0,0,1-1.72,1.07,1.92,1.92,0,0,1-1.71-2.79c5.53-11,8.49-26.23,8.79-45.35V65.81a2.09,2.09,0,0,1,2.09-2.09h81.35a2,2,0,1,1,0,4H462.89a72.82,72.82,0,0,1-2.7,11.76,0.4,0.4,0,0,0,.06.37,0.43,0.43,0,0,0,.35.18h28.24a2.09,2.09,0,0,1,2.09,2.09V116.8a2.09,2.09,0,0,1-2.09,2.09h-24a0.43,0.43,0,0,0-.43.43v29.76a6.27,6.27,0,0,1-6.27,6.27h-9.85Zm-11.48-54a0.43,0.43,0,0,0-.43.43v12.83a0.43,0.43,0,0,0,.43.43h49.71a0.43,0.43,0,0,0,.43-0.43V101.73a0.43,0.43,0,0,0-.43-0.43H436.78Zm0-17.48a0.43,0.43,0,0,0-.43.43V97a0.43,0.43,0,0,0,.43.43h49.71a0.43,0.43,0,0,0,.43-0.43V84.25a0.43,0.43,0,0,0-.43-0.43H436.78Zm59.92,67.76a2,2,0,0,1-1.72-.95,160.07,160.07,0,0,0-16.6-21.39,1.9,1.9,0,0,1-.47-1.53,1.89,1.89,0,0,1,1.87-1.64,1.9,1.9,0,0,1,1.42.63,190.7,190.7,0,0,1,17.19,21.73,2,2,0,0,1-.45,2.71A2,2,0,0,1,496.7,151.58Zm-70.13-.32a2,2,0,0,1-1.38-3.42,93.93,93.93,0,0,0,16-20.75,2,2,0,0,1,1.72-1,2,2,0,0,1,.81.17,2,2,0,0,1,.91,2.82A102.3,102.3,0,0,1,428,150.7,2,2,0,0,1,426.57,151.26Z"
          style="fill:#0a88ff"/>
</svg>